<svg width="371" height="154" viewBox="0 0 371 154" fill="none" xmlns="http://www.w3.org/2000/svg">
<path d="M128.182 121.455C121.636 121.455 116 119.909 111.273 116.818C106.545 113.727 102.909 109.47 100.364 104.045C97.8182 98.6212 96.5455 92.4242 96.5455 85.4545C96.5455 78.3636 97.8485 72.1061 100.455 66.6818C103.091 61.2273 106.758 56.9697 111.455 53.9091C116.182 50.8182 121.697 49.2727 128 49.2727C132.909 49.2727 137.333 50.1818 141.273 52C145.212 53.8182 148.439 56.3636 150.955 59.6364C153.47 62.9091 155.03 66.7273 155.636 71.0909H144.909C144.091 67.9091 142.273 65.0909 139.455 62.6364C136.667 60.1515 132.909 58.9091 128.182 58.9091C124 58.9091 120.333 60 117.182 62.1818C114.061 64.3333 111.621 67.3788 109.864 71.3182C108.136 75.2273 107.273 79.8182 107.273 85.0909C107.273 90.4848 108.121 95.1818 109.818 99.1818C111.545 103.182 113.97 106.288 117.091 108.5C120.242 110.712 123.939 111.818 128.182 111.818C130.97 111.818 133.5 111.333 135.773 110.364C138.045 109.394 139.97 108 141.545 106.182C143.121 104.364 144.242 102.182 144.909 99.6364H155.636C155.03 103.758 153.53 107.47 151.136 110.773C148.773 114.045 145.636 116.652 141.727 118.591C137.848 120.5 133.333 121.455 128.182 121.455Z" fill="black"/>
<path d="M369.182 50.1818V59.2727H333V50.1818H369.182ZM343.545 33.4545H354.273V100C354.273 103.03 354.712 105.303 355.591 106.818C356.5 108.303 357.652 109.303 359.045 109.818C360.47 110.303 361.97 110.545 363.545 110.545C364.727 110.545 365.697 110.485 366.455 110.364C367.212 110.212 367.818 110.091 368.273 110L370.455 119.636C369.727 119.909 368.712 120.182 367.409 120.455C366.106 120.758 364.455 120.909 362.455 120.909C359.424 120.909 356.455 120.258 353.545 118.955C350.667 117.652 348.273 115.667 346.364 113C344.485 110.333 343.545 106.97 343.545 102.909V33.4545Z" fill="black"/>
<path d="M221.364 121.636C216.939 121.636 212.924 120.803 209.318 119.136C205.712 117.439 202.848 115 200.727 111.818C198.606 108.606 197.545 104.727 197.545 100.182C197.545 96.1818 198.333 92.9394 199.909 90.4545C201.485 87.9394 203.591 85.9697 206.227 84.5455C208.864 83.1212 211.773 82.0606 214.955 81.3636C218.167 80.6364 221.394 80.0606 224.636 79.6364C228.879 79.0909 232.318 78.6818 234.955 78.4091C237.621 78.1061 239.561 77.6061 240.773 76.9091C242.015 76.2121 242.636 75 242.636 73.2727V72.9091C242.636 68.4242 241.409 64.9394 238.955 62.4545C236.53 59.9697 232.848 58.7273 227.909 58.7273C222.788 58.7273 218.773 59.8485 215.864 62.0909C212.955 64.3333 210.909 66.7273 209.727 69.2727L199.545 65.6364C201.364 61.3939 203.788 58.0909 206.818 55.7273C209.879 53.3333 213.212 51.6667 216.818 50.7273C220.455 49.7576 224.03 49.2727 227.545 49.2727C229.788 49.2727 232.364 49.5455 235.273 50.0909C238.212 50.6061 241.045 51.6818 243.773 53.3182C246.53 54.9545 248.818 57.4242 250.636 60.7273C252.455 64.0303 253.364 68.4545 253.364 74V120H242.636V110.545H242.091C241.364 112.061 240.152 113.682 238.455 115.409C236.758 117.136 234.5 118.606 231.682 119.818C228.864 121.03 225.424 121.636 221.364 121.636ZM223 112C227.242 112 230.818 111.167 233.727 109.5C236.667 107.833 238.879 105.682 240.364 103.045C241.879 100.409 242.636 97.6364 242.636 94.7273V84.9091C242.182 85.4545 241.182 85.9545 239.636 86.4091C238.121 86.8333 236.364 87.2121 234.364 87.5455C232.394 87.8485 230.47 88.1212 228.591 88.3636C226.742 88.5758 225.242 88.7576 224.091 88.9091C221.303 89.2727 218.697 89.8636 216.273 90.6818C213.879 91.4697 211.939 92.6667 210.455 94.2727C209 95.8485 208.273 98 208.273 100.727C208.273 104.455 209.652 107.273 212.409 109.182C215.197 111.061 218.727 112 223 112ZM279.343 120V50.1818H290.07V120H279.343ZM284.798 38.5455C282.707 38.5455 280.904 37.8333 279.389 36.4091C277.904 34.9848 277.161 33.2727 277.161 31.2727C277.161 29.2727 277.904 27.5606 279.389 26.1364C280.904 24.7121 282.707 24 284.798 24C286.889 24 288.677 24.7121 290.161 26.1364C291.677 27.5606 292.434 29.2727 292.434 31.2727C292.434 33.2727 291.677 34.9848 290.161 36.4091C288.677 37.8333 286.889 38.5455 284.798 38.5455Z" fill="black"/>
<path d="M165 133C165 133 190 123 180.5 89C177.94 79.8367 161 62.5003 170 44C187.936 7.13152 377 -29.5 323.5 44C287.469 93.5004 340 93.5001 315 122C290 150.5 99 167.5 165 133ZM165 133C165 133 141.5 156.5 1 122" stroke="#D07663" stroke-width="3"/>
</svg>
